HIERARCHY
ROOT Hips
{
	OFFSET	0	0	0
	CHANNELS 6  Xposition Yposition Zposition Xrotation Yrotation Zrotation
	JOINT Spine
	{
		OFFSET	0	7.09727	1.42491
		CHANNELS 3  Xrotation Yrotation Zrotation
		JOINT Spine1
		{
			OFFSET	0	12.1515	-2.16991
			CHANNELS 3  Xrotation Yrotation Zrotation
			JOINT Spine2
			{
				OFFSET	0	9.21125	0.987307
				CHANNELS 3  Xrotation Yrotation Zrotation
				JOINT Spine3
				{
					OFFSET	0	11.0231	3.27656
					CHANNELS 3  Xrotation Yrotation Zrotation
					JOINT Spine4
					{
						OFFSET	0	16.3177	-1.67083
						CHANNELS 3  Xrotation Yrotation Zrotation
						JOINT Neck
						{
							OFFSET	0	7.78996	-5.45731
							CHANNELS 3  Xrotation Yrotation Zrotation
							JOINT Head
							{
								OFFSET	0	9.35229	-2.79918
								CHANNELS 3  Xrotation Yrotation Zrotation
								End Site
								{
									OFFSET	0	19.5075	-0.943909
								}
							}
						}
					}
					JOINT LeftShoulder
					{
						OFFSET	-4.687	19.8329	-9.3523
						CHANNELS 3  Xrotation Yrotation Zrotation
						JOINT LeftArm
						{
							OFFSET	-10.2164	-2.79918	3.59122
							CHANNELS 3  Xrotation Yrotation Zrotation
							JOINT LeftForeArm
							{
								OFFSET	-30.9138	-1.41096	2.20659
								CHANNELS 3  Xrotation Yrotation Zrotation
								JOINT LeftHand
								{
									OFFSET	-25.9068	-1.7903	1.8492
									CHANNELS 3  Xrotation Yrotation Zrotation
									End Site
									{
										OFFSET	-9.45469	-0.653372	0.674821
									}
								}
							}
						}
					}
					JOINT RightShoulder
					{
						OFFSET	4.687	19.8329	-9.3523
						CHANNELS 3  Xrotation Yrotation Zrotation
						JOINT RightArm
						{
							OFFSET	10.2164	-2.79918	3.59122
							CHANNELS 3  Xrotation Yrotation Zrotation
							JOINT RightForeArm
							{
								OFFSET	30.9138	-1.41096	2.20659
								CHANNELS 3  Xrotation Yrotation Zrotation
								JOINT RightHand
								{
									OFFSET	25.9068	-1.7903	1.8492
									CHANNELS 3  Xrotation Yrotation Zrotation
									End Site
									{
										OFFSET	9.45469	-0.653372	0.674821
									}
								}
							}
						}
					}
				}
			}
		}
	}
	JOINT LeftUpLeg
	{
		OFFSET	-9.67573	-3.54864	-0.712453
		CHANNELS 3  Xrotation Yrotation Zrotation
		JOINT LeftLeg
		{
			OFFSET	-2.14499	-42.0303	-0.657025
			CHANNELS 3  Xrotation Yrotation Zrotation
			JOINT LeftFoot
			{
				OFFSET	-2.09953	-38.701	3.32829
				CHANNELS 3  Xrotation Yrotation Zrotation
				JOINT LeftToeBase
				{
					OFFSET	0	-4.7778	-12.6898
					CHANNELS 3  Xrotation Yrotation Zrotation
					End Site
					{
						OFFSET	0	-1.91111	-7.64447
					}
				}
			}
		}
	}
	JOINT RightUpLeg
	{
		OFFSET	9.67573	-3.54864	-0.712453
		CHANNELS 3  Xrotation Yrotation Zrotation
		JOINT RightLeg
		{
			OFFSET	2.14499	-42.0303	-0.657025
			CHANNELS 3  Xrotation Yrotation Zrotation
			JOINT RightFoot
			{
				OFFSET	2.09953	-38.701	3.32829
				CHANNELS 3  Xrotation Yrotation Zrotation
				JOINT RightToeBase
				{
					OFFSET	0	-4.7778	-12.6898
					CHANNELS 3  Xrotation Yrotation Zrotation
					End Site
					{
						OFFSET	0	-1.91111	-7.64447
					}
				}
			}
		}
	}
}
MOTION
Frames: 20
Frame Time: 0.020408
 -138.552 51.8567 186.18 72.12 -171.946 70.2916 179.968 179.473 -176.474 179.664 178.949 -174.122 179.484 176.848 -174.114 179.926 179.473 -176.474 179.666 -179.993 -178.825 0.299799 16.5934 0.566586 179.75 152.158 -177.592 169.856 -166.217 158.003 50.3572 2.59875 46.7017 75.3659 -15.0438 38.0545 -0 -89.1325 -5.02399 167.995 150.74 -153.225 85.0846 -5.99082 -64.582 3.31152 62.9644 -1.35876 -0 -25.0227 -6.78388 56.7321 -38.6554 49.5 161.555 -146.857 161.694 150.815 -166.09 134.906 142.388 180 -180 138.889 -22.7965 -5.0384 54.6669 -175.788 177.876 41.1067 3.48581 4.33226 2.11317 0 0
 -139.11 53.628 186.373 72.6457 -174.39 69.8247 179.96 179.37 -176.33 0.281892 1.25442 6.11758 0.159836 3.76324 6.12937 0.679182 0.629509 3.66989 179.108 -179.981 -178.777 178.007 164.948 178.15 178.998 151.872 -178.091 170.109 -165.281 158.507 52.7061 1.63603 46.3453 74.938 -13.8588 35.1631 -0 -88.7997 -4.96857 168.095 151.408 -153.438 86.1417 -5.47165 -66.9743 2.69774 62.0941 -0.857598 -0 -25.3794 -5.36099 64.0407 -42.2751 50.6649 163.843 -147.862 164.367 149.899 -167.594 139.092 141.907 180 -180 140.205 -22.3685 -7.1603 57.8071 -176.006 178.331 39.0055 3.15732 4.07836 1.65449 0 0
 -140.394 54.9056 186.147 73.9492 -175.748 68.439 179.955 179.352 -176.024 0.528136 1.29009 6.62796 0.464282 3.87024 6.64148 1.11662 0.647822 3.97602 178.571 -179.967 -178.675 176.137 165.754 176.558 178.386 151.526 -178.354 170.06 -163.724 158.284 55.2624 0.542392 44.9467 74.5339 -12.4785 31.8264 -0 -88.1321 -5.01901 168.256 151.944 -153.801 86.5437 -5.2892 -69.3558 2.19098 61.5609 -0.43309 -0 -25.5458 -4.22523 68.7918 -41.9914 52.5339 164.359 -149.422 164.702 151.538 -167.609 142.033 141.575 180 -180 142.534 -19.7549 -6.77561 59.6037 -176.306 177.176 35.4657 1.46669 2.44252 1.06283 0 0
 -140.832 56.3514 187.067 74.6633 -177.262 68.0726 179.953 179.36 -175.816 0.866696 1.27366 6.97416 0.789397 3.82094 6.98804 1.33954 0.639866 4.18372 178.697 -179.968 -178.606 176.173 166.009 175.136 178.384 150.687 -178.676 170.062 -163.617 158.283 57.3536 -0.512189 43.7175 74.0866 -11.2938 28.6792 -0 -87.6894 -4.82507 168.328 152.265 -153.965 86.4818 -5.14011 -72.5311 1.88647 61.3162 -0.148283 -0 -25.5857 -3.50317 70.9706 -43.3099 51.9745 165.187 -149.23 165.007 150.861 -168.379 139.848 142.223 180 -180 143.323 -16.4213 -7.46771 61.5192 -176.73 175.231 32.8013 0.837763 1.84029 1.03396 0 0
 -141.693 59.1088 187.848 69.3376 179.673 68.7052 179.909 178.759 -175.825 0.767374 2.47023 6.96355 0.332372 7.41041 7.01593 1.1403 1.24098 4.17521 179.147 -179.979 -178.609 177.411 166.558 173 178.8 149.715 -179.319 169.913 -162.238 157.857 60.2281 -2.74796 41.2208 74.2438 -10.8299 25.1348 -0 -87.0224 -4.78167 169.126 151.991 -155.839 86.3954 -5.14371 -74.5552 1.60026 61.9945 0.52688 -0 -25.1431 -2.83809 67.8289 -43.775 42.7774 165.552 -150.365 167.42 152.704 -171.77 137.146 144.647 180 -180 71.1611 0.703444 0.574956 124.764 177.715 168.541 56.2455 -8.45656 -12.584 0.306225 0 0
 -142.381 60.159 186.76 71.5323 178.295 65.1915 179.917 178.995 -175.305 1.19252 1.99858 7.82927 0.887939 5.99556 7.86779 1.63846 1.0053 4.69541 178.756 -179.966 -178.435 175.805 166.87 171.127 178.259 148.577 -179.575 169.753 -162.616 157.508 60.9359 -3.99063 40.6845 73.6341 -9.06355 21.6848 -0 -86.7438 -4.71085 169.628 153.187 -156.987 82.136 -6.04703 -79.7902 1.30818 62.1529 0.879607 -0 -24.7171 -2.1968 71.924 -39.19 44.5708 166.24 -150.874 168.92 152.119 -171.564 135.897 145.043 180 -180 61.4069 -0.181766 5.58207 134.881 -175.927 174.501 37.6951 -10.1146 -17.8819 0.722295 0 0
 -143.034 61.6588 185.919 73.3682 177.137 63.5956 179.935 179.222 -175.204 1.42866 1.54638 7.99529 1.30241 4.63904 8.0188 1.96002 0.778041 4.79586 178.384 -179.955 -178.402 174.625 166.136 171.857 177.811 147.983 -179.159 170.177 -162.129 158.459 62.144 -4.75873 39.6074 73.3246 -7.85181 18.2141 -0 -86.4656 -4.6 169.708 154.103 -157.166 79.1126 -6.11252 -82.877 1.13623 61.7171 0.699311 -0 -24.2352 -1.84338 78.115 -40.2561 47.4552 166.551 -151.959 168.579 152.094 -170.561 142.243 142.135 180 -180 63.7395 5.65059 4.17811 132.873 -171.462 -178.971 4.83846 0.787929 0.87325 0.0360932 0 0
 -143.693 63.5831 185.686 74.4048 175.223 62.1871 179.935 179.26 -174.985 1.62364 1.4707 8.36024 1.51942 4.41202 8.38248 2.14894 0.7404 5.0149 178.31 -179.951 -178.329 174.234 165.909 171.189 177.646 147.025 -179.193 170.08 -161.592 158.207 63.5483 -6.23515 38.6707 73.3433 -6.62493 15.4584 -0 -86.2286 -4.64864 170.217 154.916 -158.343 74.8912 -6.4243 -85.6765 1.37004 62.2262 0.65948 -0 -23.4228 -1.9538 79.5837 -38.0262 45.6558 166.52 -153.213 169.317 152.423 -170.357 142.844 142.042 180 -180 67.128 9.00241 1.08719 131.532 -170.551 -178.79 15.0715 0.883975 1.15 0.0621156 0 0
 -144.496 64.9603 185.446 76.4239 173.941 60.9003 179.941 179.347 -174.804 1.8127 1.29723 8.66218 1.77182 3.89162 8.68012 2.34622 0.653398 5.19631 178.185 -179.945 -178.269 173.71 165.687 170.597 177.435 146.165 -179.194 170.042 -160.563 158.073 64.7417 -7.54145 37.363 73.4072 -5.40325 13.0637 -0 -85.6368 -4.68967 170.745 155.824 -159.563 71.0655 -6.47236 -87.2933 1.74489 62.8797 0.402578 -0 -22.1853 -2.35633 80.2992 -34.0034 43.7455 165.463 -156.21 171.159 155.266 -171.056 146.416 141.446 180 -180 70.3731 13.4773 -0.311138 130.811 -170.242 -178.689 20.3889 1.19132 1.30991 0.0766426 0 0
 -145.418 66.973 185.699 84.5518 173.683 62.319 179.999 179.986 -175.378 2.28185 0.0287914 7.7032 2.6596 0.0863743 7.7032 2.67929 0.0144796 4.62192 178.064 -179.948 -178.46 173.069 165.657 170.122 177.202 145.779 -179.202 170.604 -158.558 159.296 65.7173 -8.46162 36.6575 73.5912 -4.86436 10.831 -0 -85.001 -4.61899 171.221 158.816 -160.712 68.3055 -6.55288 -87.3075 3.00137 65.0227 -0.884625 -0 -20.7248 -3.12375 74.5385 -15.9565 36.3915 162.969 -171.896 -179.52 156.813 -179.978 176.583 139.891 180 -180 73.2223 16.7132 1.1597 130.784 -168.633 -179.257 22.5749 -0.0952049 1.69221 0.0869042 0 0
 -145.455 67.8252 185.241 85.2125 172.557 61.1254 179.999 179.994 -175.282 2.49452 0.0126427 7.86263 2.89511 0.037928 7.86263 2.87588 0.00635971 4.71758 178.004 -179.945 -178.428 172.653 165.631 168.952 177.034 144.829 -179.363 171.182 -158.035 160.602 66.0716 -9.11014 35.8784 73.735 -4.45407 9.7341 -0 -84.2572 -4.35321 172.313 159.352 -163.197 67.9288 -7.70563 -86.9437 3.39471 65.4857 -1.32244 -0 -19.4028 -3.66948 75.2907 -13.3341 35.6225 162.718 -172.832 -179.357 156.989 -179.983 176.215 139.891 180 -180 75.0365 21.7827 -0.793647 130.41 -168.307 -179.489 19.7519 -0.143615 1.62732 0.0957559 0 0
 -145.418 68.5662 184.615 85.9769 171.461 59.4883 0.000212341 -0.00248186 4.89014 2.6791 -0.00493155 8.15024 3.13208 -0.0147946 8.15024 3.14051 -0.00248186 4.89014 177.733 -179.936 -178.371 171.668 165.341 168.112 176.642 143.793 -179.329 171.774 -157.402 161.932 66.3685 -9.93862 34.6839 73.8232 -4.43679 9.75418 -0 -83.2986 -3.87904 173.47 159.539 -165.784 67.7857 -8.53796 -86.6321 3.7269 65.8872 -1.84581 -0 -18.277 -4.46332 76.2075 -10.5262 35.1418 162.414 -173.224 -179.198 157.073 -179.947 175.926 139.891 180 -180 76.6031 26.0607 -2.57805 129.946 -168.084 -179.535 15.0541 -0.121312 1.5048 0.108493 0 0
 -145.599 69.4969 183.881 86.7424 170.203 58.0735 0.000498716 -0.00560223 5.08712 2.84686 -0.0111258 8.47853 3.35604 -0.0333775 8.47854 3.4149 -0.00560223 5.08712 177.408 -179.923 -178.306 170.526 165.008 166.958 176.176 142.529 -179.313 172.44 -156.795 163.421 66.2518 -11.1439 33.1493 73.8749 -4.71654 10.8777 -0 -81.7109 -3.12794 174.758 159.374 -168.625 69.2169 -8.86386 -85.9103 4.07668 65.9736 -2.2251 -0 -17.3367 -5.49184 77.2595 -7.84969 34.1431 161.642 -173.266 -179.054 157.082 -179.931 175.809 139.889 180 -180 81.1962 31.0575 -5.25454 126.665 -167.577 -179.564 8.1701 -0.0439414 1.20526 0.137302 0 0
 -145.452 70.3314 183.29 87.5443 168.968 56.058 0.00124065 -0.0132058 5.36703 3.00232 -0.0262052 8.94506 3.60827 -0.0786157 8.94506 3.79314 -0.0132058 5.36703 176.817 -179.901 -178.214 168.521 164.962 165.217 175.432 141.699 -179.375 173.286 -156.441 165.311 65.5659 -12.1318 31.4065 73.7359 -5.28746 12.5212 -0 -79.1314 -2.09622 175.769 158.818 -170.829 70.0948 -9.10382 -85.7276 4.28751 65.7944 -2.42015 -0 -16.6067 -6.84072 78.1897 -4.45738 33.4973 160.938 -172.278 -179.363 157.121 -179.901 175.712 139.888 180 -180 85.8142 35.2011 -8.1399 123.939 -167.436 -179.679 0.633993 0.0241562 0.809063 0.164245 0 0
 -145.732 71.3471 182.74 88.2336 168.009 54.2623 0.00222606 -0.0224429 5.66451 3.13021 -0.0444951 9.44085 3.8582 -0.133485 9.44088 4.22369 -0.0224429 5.66451 176.051 -179.87 -178.116 166.013 165.049 163.645 174.547 141.649 -179.408 174.084 -156.001 167.079 65.1641 -13.1036 29.6539 73.752 -5.995 14.4824 -0 -75.6133 -1.21538 177.167 158.018 -173.863 71.4416 -9.50333 -85.477 3.96935 64.0572 -1.98214 -0 -16.2637 -7.97409 79.1752 -0.587594 31.6605 158.415 -170.132 -178.894 157.306 -179.941 176.021 139.886 180 -180 91.5816 38.4565 -12.0831 121.202 -167.274 -179.533 173.663 179.964 -179.507 0.186414 0 0
 -145.99 72.2273 182.123 88.5818 167.406 52.8377 0.00136266 -0.0130761 5.94929 3.21911 -0.0259011 9.91548 4.04242 -0.0777034 9.91548 4.5872 -0.0130761 5.94929 175.374 -179.84 -178.023 163.836 165.018 162.225 173.774 141.63 -179.445 174.695 -155.362 168.425 64.7064 -14.007 28.3988 73.7821 -6.59703 16.2212 -0 -72.0776 -0.453333 178.577 157.358 -176.919 72.6169 -9.93742 -85.1542 3.53268 61.7771 -1.42287 -0 -16.1676 -9.04258 80.4717 3.29522 30.3834 156.182 -167.373 -178.459 157.328 -179.992 176.506 139.889 180 -180 97.5079 40.7714 -16.9163 118.752 -167.189 -179.63 166.225 179.99 -179.787 0.206459 0 0
 -145.998 73.2941 181.404 89.4326 167.468 50.41 0.00195473 -0.0170978 6.52208 3.30806 -0.0338008 10.8701 4.23954 -0.101403 10.8702 4.95849 -0.0170978 6.52208 174.675 -179.798 -177.835 161.624 164.856 160.855 172.981 141.648 -179.459 175.213 -154.13 169.558 63.5443 -14.6999 28.009 73.7678 -7.12168 17.5526 -0 -68.4313 0.234755 179.951 157.379 -179.894 73.3129 -10.2069 -84.3182 2.98682 58.7629 -0.868239 -0 -16.4131 -9.97038 81.5019 7.17691 29.0989 153.34 -164.033 -178.376 158.777 -179.927 177.057 139.89 180 -180 104.011 42.83 -22.4871 115.858 -166.977 -179.477 160.34 -179.992 -179.861 0.219139 0 0
 -146.164 73.8965 181.016 90.0117 167.695 48.2323 0.000850615 -0.00683196 7.0971 3.32589 -0.013477 11.8285 4.43512 -0.0404311 11.8285 5.52698 -0.00683196 7.09711 173.388 -179.727 -177.65 157.862 164.029 159.855 171.573 141.68 -179.104 175.58 -153.004 170.365 61.9551 -15.1998 27.6928 73.6189 -7.4476 18.3174 -0 -64.8005 0.87864 1.09039 22.415 -2.35994 74.2716 -10.298 -82.9891 2.5277 55.5466 -0.569841 -0 -16.7503 -10.7723 82.7731 11.4244 27.7965 149.109 -161.367 -178.523 163.342 -179.967 177.977 139.89 180 -180 109.231 42.0323 -27.0345 112.547 -166.431 -179.084 156.758 -179.975 -179.718 0.233377 0 0
 -146.691 73.6917 180.302 90.4915 168.729 45.8953 0.00251008 -0.0188054 7.60271 3.34883 -0.0370202 12.6712 4.62948 -0.111061 12.6712 6.02155 -0.0188054 7.60272 172.273 -179.659 -177.489 154.703 163.094 160.659 170.382 141.966 -178.429 175.755 -151.885 170.75 59.5168 -15.5837 27.156 73.1846 -7.5611 18.3148 -0 -60.8967 1.61549 1.50059 23.0311 -3.25133 74.8111 -10.3776 -81.8323 2.15451 52.5362 -0.0948665 -0 -17.0114 -11.5323 84.1164 16.7102 26.5191 142.706 -159.602 -178.589 173.23 -179.981 179.42 139.89 180 -180 113.214 41.0993 -30.4244 107.955 -165.303 -178.93 156.826 -179.962 -179.329 0.245835 0 0
 -146.789 73.7361 179.096 90.4359 169.726 43.2973 0.00250926 -0.0173278 8.23981 3.31867 -0.034016 13.733 4.73275 -0.102048 13.733 6.40178 -0.0173278 8.23981 171.331 -179.586 -177.285 152.055 162.46 161.532 169.434 142.463 -177.897 175.858 -151.732 170.976 56.9191 -16.3828 28.3319 72.5732 -7.71087 18.1407 -0 -56.9075 2.48506 1.52659 23.6276 -3.31015 75.1491 -10.2255 -80.2605 1.90796 49.5055 0.254861 -0 -17.1257 -12.3093 85.5991 21.0989 24.4768 137.499 -158.135 -178.738 4.35363 -0.0236802 0.706183 139.894 180 -180 117.726 40.0661 -33.725 103.893 -163.987 -178.991 157.148 -179.96 -178.806 0.257759 0 0
